<svg xmlns="http://www.w3.org/2000/svg" xmlns:xlink="http://www.w3.org/1999/xlink" width="500" zoomAndPan="magnify" viewBox="0 0 375 374.999991" height="500" preserveAspectRatio="xMidYMid meet" version="1.0"><defs><g/><clipPath id="131270486f"><path d="M 37.5 37.5 L 337.5 37.5 L 337.5 337.5 L 37.5 337.5 Z M 37.5 37.5 " clip-rule="nonzero"/></clipPath><clipPath id="2f68be6bbd"><path d="M 187.5 37.5 C 104.65625 37.5 37.5 104.65625 37.5 187.5 C 37.5 270.34375 104.65625 337.5 187.5 337.5 C 270.34375 337.5 337.5 270.34375 337.5 187.5 C 337.5 104.65625 270.34375 37.5 187.5 37.5 Z M 187.5 37.5 " clip-rule="nonzero"/></clipPath><clipPath id="8ae5dff3d3"><path d="M 252.601562 51.746094 L 287.097656 51.746094 L 287.097656 239.957031 L 252.601562 239.957031 Z M 252.601562 51.746094 " clip-rule="nonzero"/></clipPath><clipPath id="1554d06074"><path d="M 96.496094 214.058594 L 214.453125 214.058594 L 214.453125 239.957031 L 96.496094 239.957031 Z M 96.496094 214.058594 " clip-rule="nonzero"/></clipPath></defs><g clip-path="url(#131270486f)"><g clip-path="url(#2f68be6bbd)"><path fill="#272727" d="M 37.5 37.5 L 337.5 37.5 L 337.5 337.5 L 37.5 337.5 Z M 37.5 37.5 " fill-opacity="1" fill-rule="nonzero"/></g></g><g fill="#ffffff" fill-opacity="1"><g transform="translate(84.990269, 239.400325)"><g><path d="M 11.5625 -107.515625 L 104.546875 -107.515625 L 104.546875 -81.734375 L 46.09375 -81.734375 L 46.09375 -66.875 L 96.109375 -66.875 L 96.109375 -42.1875 L 46.09375 -42.1875 L 46.09375 -25.78125 L 105.640625 -25.78125 L 105.640625 0 L 11.5625 0 Z M 11.5625 -107.515625 "/></g></g></g><path stroke-linecap="butt" transform="matrix(0.494289, 0, 0, 0.494289, 119.961465, 78.262113)" fill="none" stroke-linejoin="miter" d="M 268.313629 325.996182 L 268.313629 243.49131 L 191.443428 243.49131 L 191.443428 325.996182 L 121.590884 325.996182 L 121.590884 108.49627 L 191.443428 108.49627 L 191.443428 187.840036 L 268.313629 187.840036 L 268.313629 108.49627 L 338.166173 108.49627 L 338.166173 325.996182 Z M 268.313629 325.996182 " stroke="#272727" stroke-width="45.050236" stroke-opacity="1" stroke-miterlimit="4"/><g fill="#ffffff" fill-opacity="1"><g transform="translate(168.502188, 239.400325)"><g><path d="M 84.078125 0 L 84.078125 -40.78125 L 46.09375 -40.78125 L 46.09375 0 L 11.5625 0 L 11.5625 -107.515625 L 46.09375 -107.515625 L 46.09375 -68.28125 L 84.078125 -68.28125 L 84.078125 -107.515625 L 118.609375 -107.515625 L 118.609375 0 Z M 84.078125 0 "/></g></g></g><g clip-path="url(#8ae5dff3d3)"><path fill="#ffffff" d="M 252.601562 51.746094 L 287.097656 51.746094 L 287.097656 239.996094 L 252.601562 239.996094 Z M 252.601562 51.746094 " fill-opacity="1" fill-rule="nonzero"/></g><g clip-path="url(#1554d06074)"><path fill="#ffffff" d="M 96.496094 214.058594 L 214.460938 214.058594 L 214.460938 239.957031 L 96.496094 239.957031 Z M 96.496094 214.058594 " fill-opacity="1" fill-rule="nonzero"/></g></svg>